HIERARCHY
ROOT Hips
{
 OFFSET 0.000000 0.000000 0.000000
 CHANNELS 6 Xposition Yposition Zposition Yrotation Xrotation Zrotation
 JOINT Chest
 {
  OFFSET 0.000000 9.585900 0.002600
  CHANNELS 3 Yrotation Xrotation Zrotation
  JOINT Chest2
  {
   OFFSET 0.000000 9.601200 -0.005300
   CHANNELS 3 Yrotation Xrotation Zrotation
   JOINT Chest3
   {
    OFFSET 0.000000 9.561800 0.000000
    CHANNELS 3 Yrotation Xrotation Zrotation
    JOINT Chest4
    {
     OFFSET 0.000000 9.552100 0.000000
     CHANNELS 3 Yrotation Xrotation Zrotation
     JOINT Neck
     {
      OFFSET 0.000000 14.453000 0.000000
      CHANNELS 3 Yrotation Xrotation Zrotation
      JOINT Head
      {
       OFFSET 0.000000 8.936500 -0.011300
       CHANNELS 3 Yrotation Xrotation Zrotation
       End Site
       {
        OFFSET 0.000000 17.073600 -0.006000
       }
      }
     }
     JOINT RightCollar
     {
      OFFSET -2.921100 9.558500 0.000000
      CHANNELS 3 Yrotation Xrotation Zrotation
      JOINT RightShoulder
      {
       OFFSET -13.519700 0.000000 0.000000
       CHANNELS 3 Yrotation Xrotation Zrotation
       JOINT RightElbow
       {
        OFFSET 0.000000 -29.696600 0.000000
        CHANNELS 3 Yrotation Xrotation Zrotation
        JOINT RightWrist
        {
         OFFSET 0.000000 -24.004700 0.000000
         CHANNELS 3 Yrotation Xrotation Zrotation
         End Site
         {
          OFFSET 0.000000 -17.728500 0.000000
         }
        }
       }
      }
     }
     JOINT LeftCollar
     {
      OFFSET 2.921100 9.558500 0.000000
      CHANNELS 3 Yrotation Xrotation Zrotation
      JOINT LeftShoulder
      {
       OFFSET 13.519700 0.000000 0.000000
       CHANNELS 3 Yrotation Xrotation Zrotation
       JOINT LeftElbow
       {
        OFFSET 0.000000 -29.696600 0.000000
        CHANNELS 3 Yrotation Xrotation Zrotation
        JOINT LeftWrist
        {
         OFFSET 0.000000 -24.004700 0.000000
         CHANNELS 3 Yrotation Xrotation Zrotation
         End Site
         {
          OFFSET 0.000000 -17.728500 0.000000
         }
        }
       }
      }
     }
    }
   }
  }
 }
 JOINT RightHip
 {
  OFFSET -7.771700 -0.012900 -0.001300
  CHANNELS 3 Yrotation Xrotation Zrotation
  JOINT RightKnee
  {
   OFFSET 0.000000 -40.869800 0.001200
   CHANNELS 3 Yrotation Xrotation Zrotation
   JOINT RightAnkle
   {
    OFFSET 0.000000 -39.717900 0.002100
    CHANNELS 3 Yrotation Xrotation Zrotation
    JOINT RightToe
    {
     OFFSET 0.000000 -4.965400 11.033500
     CHANNELS 3 Yrotation Xrotation Zrotation
     End Site
     {
      OFFSET 0.000000 -1.423100 5.872300
     }
    }
   }
  }
 }
 JOINT LeftHip
 {
  OFFSET 7.771700 -0.012900 -0.001300
  CHANNELS 3 Yrotation Xrotation Zrotation
  JOINT LeftKnee
  {
   OFFSET 0.000000 -40.869800 0.001200
   CHANNELS 3 Yrotation Xrotation Zrotation
   JOINT LeftAnkle
   {
    OFFSET 0.000000 -39.717900 0.002100
    CHANNELS 3 Yrotation Xrotation Zrotation
    JOINT LeftToe
    {
     OFFSET 0.000000 -4.965400 11.033500
     CHANNELS 3 Yrotation Xrotation Zrotation
     End Site
     {
      OFFSET 0.000000 -1.423100 5.872300
     }
    }
   }
  }
 }
}
MOTION
Frames: 6
Frame Time: 0.008333
-83.500430 48.889295 19.489997 177.431872 -31.053432 -4.160253 0.299534 19.716177 1.662684 0.005517 2.417275 0.209408 0.011788 3.966480 0.318502 0.226261 16.999930 1.416132 3.804268 15.543259 -3.645583 8.430236 -6.506318 -8.264996 -0.976539 -2.657384 -3.377256 3.199520 -8.072433 -12.482866 -40.323784 -50.511655 89.408657 3.999637 4.290458 -10.931945 0.828632 -2.343823 2.250476 -9.813553 -2.643158 14.345431 69.105334 -63.134263 -109.003812 7.016864 7.458839 14.899938 -2.744947 -53.011711 -7.880327 -172.657639 81.822586 -159.942770 -26.797704 -7.472634 -0.286617 0.136750 -8.345886 -1.994394 -13.627498 -55.419068 18.904215 -74.433915 65.392441 -79.823225 30.707578 5.985810 16.210559 -0.009826 0.031037 -0.075866
-83.491565 48.882520 19.487406 177.450799 -31.052530 -4.140677 0.274115 19.721802 1.656277 -0.001130 2.417994 0.198772 0.014625 3.962237 0.307603 0.210061 17.009410 1.418254 3.797905 15.609158 -3.784772 8.461015 -6.425755 -8.450480 -0.971735 -2.622233 -3.465251 3.313862 -8.074414 -12.416934 -40.108712 -50.408054 89.408119 4.078563 4.434897 -10.626414 0.815470 -2.365412 2.255898 -9.908506 -2.722796 14.316469 69.267780 -63.348441 -109.060834 6.975559 7.523438 15.002393 -2.982275 -53.023795 -7.946755 -172.551655 81.816198 -159.851333 -26.725127 -7.374521 -0.347791 0.141515 -8.594331 -2.054605 -13.626715 -55.438578 18.856288 -74.456124 65.434512 -79.828521 30.703113 5.994979 16.200234 -0.019442 0.023033 -0.081465
-83.481964 48.875481 19.484197 177.446142 -31.060112 -4.101940 0.265479 19.729862 1.621141 -0.012091 2.426758 0.210215 0.020690 3.959990 0.304926 0.196280 17.014918 1.412764 3.801169 15.660492 -3.890732 8.497244 -6.334020 -8.653272 -0.956352 -2.591407 -3.534365 3.423512 -8.053577 -12.365637 -39.932671 -50.273333 89.441129 4.130835 4.555238 -10.340586 0.816187 -2.376959 2.269762 -10.007875 -2.825051 14.290186 69.441086 -63.577269 -109.124512 6.926850 7.601668 15.134984 -3.188343 -53.038587 -8.005634 -172.606791 81.804050 -159.934312 -26.646462 -7.288480 -0.406995 0.198849 -8.775759 -2.120912 -13.577018 -55.452717 18.789007 -74.491169 65.470676 -79.846161 30.700949 5.997286 16.193472 -0.031822 0.014496 -0.084298
-83.468406 48.867690 19.482848 177.436826 -31.061242 -4.074268 0.250226 19.738705 1.606544 -0.014068 2.430550 0.211899 0.021228 3.963483 0.302844 0.192724 17.023282 1.410536 3.809450 15.700850 -3.995689 8.538697 -6.250601 -8.848010 -0.937954 -2.574643 -3.595821 3.539407 -8.017163 -12.320407 -39.789737 -50.131299 89.494302 4.173972 4.645008 -10.072627 0.830605 -2.386353 2.266350 -10.111157 -2.945823 14.288505 69.628758 -63.817216 -109.202569 6.869952 7.682774 15.306597 -3.390383 -53.055030 -8.024522 -172.846413 81.818138 -160.196031 -26.596955 -7.198351 -0.467508 0.159296 -8.988209 -2.171239 -13.527871 -55.473849 18.756557 -74.538625 65.487005 -79.874455 30.696639 6.011590 16.189748 -0.028186 -0.005237 -0.074865
-83.452979 48.860491 19.482030 177.409874 -31.066548 -4.038754 0.232529 19.758428 1.602582 0.002228 2.424106 0.194631 0.021699 3.971711 0.306112 0.186633 17.058436 1.428333 3.819632 15.710747 -4.118047 8.585062 -6.175961 -9.034184 -0.918717 -2.583945 -3.676477 3.664288 -7.980167 -12.269740 -39.663611 -49.993174 89.551158 4.192986 4.696489 -9.845781 0.848766 -2.413597 2.244934 -10.205120 -3.081308 14.294252 69.834481 -64.065363 -109.295480 6.795327 7.766771 15.522795 -3.553668 -53.072117 -8.031363 -173.422096 81.843775 -160.794237 -26.586000 -7.118951 -0.533087 0.145246 -9.166084 -2.210483 -13.466182 -55.480187 18.720212 -74.524466 65.539968 -79.851424 30.672839 6.016362 16.200167 -0.008469 -0.014343 -0.057840
-83.431607 48.854716 19.482315 177.376832 -31.075215 -4.026479 0.256865 19.767196 1.609972 0.002545 2.424939 0.194639 -0.009302 4.000727 0.337568 0.204224 17.053128 1.405696 3.833078 15.740018 -4.212108 8.640118 -6.109757 -9.210601 -0.910920 -2.564444 -3.734888 3.802389 -7.948210 -12.214914 -39.541706 -49.845654 89.597655 4.136225 4.697528 -9.724408 0.857178 -2.411923 2.241056 -10.280708 -3.215205 14.310734 70.068834 -64.321893 -109.414045 6.690729 7.856671 15.760764 -3.730750 -53.080360 -7.976151 -174.298414 81.894623 -161.696700 -26.588047 -7.031130 -0.616973 0.152160 -9.312684 -2.236691 -13.414435 -55.475202 18.750145 -74.539631 65.517289 -79.854018 30.659617 6.020160 16.200734 0.001128 -0.015297 -0.046180
